<svg width="1000" height="1000" xmlns="http://www.w3.org/2000/svg">
<rect width="100%" height="100%" fill="#121212" />
<text x="50%" y="50" font-family="Arial" font-size="24" fill="white" text-anchor="middle">"The Digital Dance of Metis L2: AI's Evolutionary Reverie"</text>
<line x1="850" y1="500" x2="500" y2="850" stroke="white" stroke-width="2" stroke-opacity="0.6" />
<line x1="500" y1="850" x2="150" y2="500.00000000000006" stroke="white" stroke-width="2" stroke-opacity="0.6" />
<line x1="150" y1="500.00000000000006" x2="499.99999999999994" y2="150" stroke="white" stroke-width="2" stroke-opacity="0.6" />
<g transform="translate(700, 350) scale(0.5)">
  <!-- Step 1: Historical Context -->
  <circle cx="150" cy="75" r="50" fill="none" stroke="purple" stroke-width="3" />
  <line x1="150" y1="125" x2="150" y2="200" stroke="purple" stroke-width="3" />
  <circle cx="150" cy="200" r="5" fill="purple" />
  
  <!-- Step 2: Scalability -->
  <rect x="50" y="220" width="200" height="30" fill="blue" opacity="0.5" />
  <line x1="50" y1="235" x2="250" y2="235" stroke="blue" stroke-width="2" stroke-dasharray="5" />
  <polygon points="100,220 150,190 200,220" fill="white" />
  
  <!-- Step 3: Security -->
  <rect x="30" y="130" width="50" height="70" fill="gray" opacity="0.5" />
  <circle cx="55" cy="140" r="10" fill="gray" />
  <line x1="55" y1="150" x2="55" y2="230" stroke="gray" stroke-width="2" />
  
  <!-- Step 4: Adoption -->
  <circle cx="90" cy="280" r="30" fill="green" opacity="0.5" />
  <circle cx="110" cy="260" r="30" fill="green" opacity="0.5" />
  <circle cx="170" cy="260" r="30" fill="green" opacity="0.5" />
  <circle cx="190" cy="280" r="30" fill="green" opacity="0.5" />
</g>
<text x="850" y="345" font-family="Arial" font-size="12" fill="white" text-anchor="middle">1</text>
<g transform="translate(350, 700) scale(0.5)">
  <!-- Step 1: Understand the concept of AI enhancement -->
  <circle cx="50" cy="50" r="30" fill="#FFE4C4" />
  <text x="30" y="50" font-family="Arial" font-size="10" fill="black">AI Enhancement</text>
  
  <!-- Step 2: Consider the current landscape of technology -->
  <rect x="100" y="20" width="60" height="60" fill="#ADD8E6" />
  <text x="110" y="50" font-family="Arial" font-size="10" fill="black">Technology</text>
  
  <!-- Step 3: Assess the importance of AI in advanced solutions -->
  <polygon points="200,20 230,20 215,50" fill="#FFD700" />
  <text x="190" y="50" font-family="Arial" font-size="10" fill="black">AI Importance</text>
  
  <!-- Step 4: Evaluate the competitive advantage of AI enhancement -->
  <ellipse cx="50" cy="150" rx="30" ry="20" fill="#C0C0C0" />
  <text x="20" y="150" font-family="Arial" font-size="10" fill="black">Competitive Advantage</text>
  
  <!-- Step 5: Review the potential benefits of AI enhancement for Metis L2 solutions -->
  <circle cx="180" cy="150" r="25" fill="#87CEFA" />
  <text x="160" y="150" font-family="Arial" font-size="10" fill="black">Metis L2 Benefits</text>
  
  <!-- Step 6: Conclusion -->
  <rect x="100" y="200" width="100" height="50" fill="#FFA07A" />
  <text x="105" y="220" font-family="Arial" font-size="10" fill="black">Conclusion</text>
</g>
<text x="500" y="695" font-family="Arial" font-size="12" fill="white" text-anchor="middle">2</text>
<g transform="translate(0, 350.00000000000006) scale(0.5)">
  <!-- Background -->
  <rect width="100%" height="100%" fill="#f0f0f0" />
  
  <!-- Central node - Future potential -->
  <circle cx="150" cy="150" r="60" fill="#65adf9" />
  <text x="150" y="150" text-anchor="middle" fill="white" font-size="14" font-family="Arial" dy=".3em">Future potential</text>
  
  <!-- Transaction optimization -->
  <circle cx="80" cy="90" r="40" fill="#ff7b25" />
  <text x="80" y="90" text-anchor="middle" fill="white" font-size="12" font-family="Arial" dy=".3em">Transaction optimization</text>
  <line x1="110" y1="110" x2="140" y2="130" stroke="#ff7b25" stroke-width="2" />
  <line x1="150" y1="100" x2="120" y2="120" stroke="#ff7b25" stroke-width="2" />
  
  <!-- Other options -->
  <circle cx="220" cy="90" r="40" fill="#ebebeb" />
  <text x="220" y="90" text-anchor="middle" fill="#333" font-size="12" font-family="Arial" dy=".3em">Other options</text>
  
</g>
<text x="150" y="345.00000000000006" font-family="Arial" font-size="12" fill="white" text-anchor="middle">3</text>
<g transform="translate(349.99999999999994, 0) scale(0.5)">
  <!-- Step 1: Consider the current state of AI-enhanced blockchain solutions on Metis -->
  <circle cx="50" cy="50" r="30" fill="#FFD700" />
  <!-- Step 2: Assess the rate of technological advancement in AI and blockchain technology -->
  <rect x="80" y="20" width="60" height="60" fill="#4169E1" />
  <!-- Step 3: Analyze the adoption rate of new technologies in the industry -->
  <polygon points="150,50 180,20 210,50" fill="#32CD32" />
  <!-- Step 4: Predict the investment trends and research focus on AI-enhanced blockchain solutions -->
  <ellipse cx="240" cy="50" rx="30" ry="20" fill="#FF1493" />
  <!-- Step 5: Factor in regulatory challenges and barriers to mainstream adoption -->
  <path d="M40,120 L70,90 L100,120 Z" fill="#FFA500" />
  <!-- Step 6: Consider the competitive landscape and emerging trends in the market -->
  <line x1="120" y1="120" x2="180" y2="120" stroke="#8B008B" stroke-width="5" />
  <text x="100" y="160" font-family="Arial" font-size="20" fill="#000">7</text>
</g>
<text x="499.99999999999994" y="-5" font-family="Arial" font-size="12" fill="white" text-anchor="middle">4</text>
<circle cx="500" cy="500" r="20" fill="white" fill-opacity="0.9" stroke="gold" stroke-width="2" />
<text x="50%" y="980" font-family="Arial" font-size="12" fill="#999999" text-anchor="middle">Generated: 2025-04-13 17:49:52</text>
</svg>
