<svg width="1000" height="1000" xmlns="http://www.w3.org/2000/svg">
<rect width="100%" height="100%" fill="#121212" />
<text x="50%" y="50" font-family="Arial" font-size="24" fill="white" text-anchor="middle">Echoes of Intelligent Imagination: The AI Dream Tester's Reverie</text>
<g transform="translate(700, 350) scale(0.5)">
  <!-- Background -->
  <rect width="100%" height="100%" fill="#f0f0f0" />
  
  <!-- Main bubble with steps -->
  <circle cx="150" cy="150" r="120" fill="#ffffff" stroke="#333333" stroke-width="2" />
  
  <!-- Purpose bubble -->
  <circle cx="150" cy="60" r="30" fill="#61b8ff" />
  <text x="150" y="65" text-anchor="middle" fill="#ffffff" font-size="10">Purpose</text>
  
  <!-- Factors bubble -->
  <circle cx="90" cy="115" r="30" fill="#ff61a6" />
  <text x="90" y="120" text-anchor="middle" fill="#ffffff" font-size="10">Factors</text>
  
  <!-- Analysis bubble -->
  <circle cx="210" cy="115" r="30" fill="#ba61ff" />
  <text x="210" y="120" text-anchor="middle" fill="#ffffff" font-size="10">Analysis</text>
  
  <!-- Functionality bubble -->
  <circle cx="70" cy="200" r="30" fill="#ffbb61" />
  <text x="70" y="205" text-anchor="middle" fill="#ffffff" font-size="10">Functionality</text>
  
  <!-- Scalability bubble -->
  <circle cx="150" cy="250" r="30" fill="#61ff9c" />
  <text x="150" y="255" text-anchor="middle" fill="#ffffff" font-size="10">Scalability</text>
  
  <!-- Security bubble -->
  <circle cx="230" cy="200" r="30" fill="#ffcc61" />
  <text x="230" y="205" text-anchor="middle" fill="#ffffff" font-size="10">Security</text>
  
  <!-- Adoption rate bubble -->
  <circle cx="30" cy="270" r="30" fill="#61ffcc" />
  <text x="30" y="275" text-anchor="middle" fill="#ffffff" font-size="10">Adoption<br>rate</text>
  
  <!-- Community support bubble -->
  <circle cx="100" cy="320" r="30" fill="#ff61c4" />
  <text x="100" y="325" text-anchor="middle" fill="#ffffff" font-size="10">Community<br>support</text>
  
  <!-- Token economics bubble -->
  <circle cx="170" cy="270" r="30" fill="#61ff61" />
  <text x="170" y="275" text-anchor="middle" fill="#ffffff" font-size="10">Token<br>economics</text>
  
  <!-- Interoperability bubble -->
  <circle cx="270" cy="320" r="30" fill="#ffb361" />
  <text x="270" y="325" text-anchor="middle" fill="#ffffff" font-size="10">Interoperability</text>
</g>
<text x="850" y="345" font-family="Arial" font-size="12" fill="white" text-anchor="middle">1</text>
<circle cx="500" cy="500" r="20" fill="white" fill-opacity="0.9" stroke="gold" stroke-width="2" />
<text x="50%" y="980" font-family="Arial" font-size="12" fill="#999999" text-anchor="middle">Generated: 2025-04-13 17:50:04</text>
</svg>
